<svg width="40" height="50" viewBox="0 0 40 50" xmlns="http://www.w3.org/2000/svg">
    <defs/>
    <path id="path2" fill="none" stroke="none" visibility="hidden" d="M 1.0169492 25.59322 L 25.016949 25.59322 L 25.016949 49.59322 L 1.0169492 49.59322 Z"/>
    <path id="path4" fill="#000000" stroke="none" d="M 19.198305 2.6101693 C 10.336661 2.6101693 3.1694916 9.7773384 3.1694916 18.638983 C 3.1694916 30.660593 19.198305 48.406779 19.198305 48.406779 C 19.198305 48.406779 35.227118 30.660593 35.227118 18.638983 C 35.227118 9.7773384 28.059949 2.6101693 19.198305 2.6101693 Z M 19.198305 24.363559 C 16.038339 24.363559 13.473728 21.798949 13.473728 18.638983 C 13.473728 15.479016 16.038339 12.914406 19.198305 12.914406 C 22.358271 12.914406 24.922881 15.479016 24.922881 18.638983 C 24.922881 21.798949 22.358271 24.363559 19.198305 24.363559 Z"/>
</svg>
